/* XPM */
static char *_5b94d2f9b6447b4d2ac24d7a2b67663sKe00EG245ysrTCO[] = {
/* columns rows colors chars-per-pixel */
"64 64 114 2 ",
"   c None",
".  c #7E2DCB",
"X  c #7630CD",
"o  c #7F3FDD",
"O  c #327FCF",
"+  c #337ED0",
"@  c #3A7FD7",
"#  c #4D4BCB",
"$  c #4A50CE",
"%  c #4D4ED0",
"&  c #5E4BDC",
"*  c #6045D7",
"=  c #6245D9",
"-  c #7E40DE",
";  c #417EDF",
":  c #6749E0",
">  c #7F46E3",
",  c #427EE0",
"<  c #577FF0",
"1  c #597EF3",
"2  c #676AF3",
"3  c #637FF6",
"4  c #627FF8",
"5  c #7F7EFE",
"6  c #BE4EBF",
"7  c #8631CE",
"8  c #803FDD",
"9  c #8040DE",
"0  c #9C46D4",
"q  c #9448DC",
"w  c #9D4CD8",
"e  c #BD4EC2",
"r  c #BE54C5",
"t  c #8046E3",
"y  c #9669F2",
"u  c #807EFE",
"i  c #997EF4",
"p  c #A37EED",
"a  c #A27FF0",
"s  c #C055C5",
"d  c #C67ED5",
"f  c #C97FD2",
"g  c #5BDBAA",
"h  c #7FE6B3",
"j  c #3380D0",
"k  c #3A81D7",
"l  c #4180DF",
"z  c #4091D8",
"x  c #4EBBC4",
"c  c #50BCC3",
"v  c #4380E0",
"b  c #5780F1",
"n  c #5A81F3",
"m  c #6380F7",
"M  c #7E80FE",
"N  c #7889FC",
"B  c #7FA8EE",
"V  c #7BA6F0",
"C  c #53C1C3",
"Z  c #61C3CE",
"A  c #7ECACF",
"S  c #69C0D5",
"D  c #7EC6D4",
"F  c #7EC9D2",
"G  c #7FC3D9",
"H  c #BAB6BB",
"J  c #B7BCB9",
"K  c #BAB9BA",
"L  c #B8BBBB",
"P  c #B8B8BD",
"I  c #BBB8BC",
"U  c #A1DBA9",
"Y  c #BD91D8",
"T  c #8080FD",
"R  c #8180FD",
"E  c #8081FD",
"W  c #8080FE",
"Q  c #8180FE",
"!  c #8081FE",
"~  c #8080FF",
"^  c #8080FE",
"/  c #8688FC",
"(  c #9880F4",
")  c #9A80F4",
"_  c #A380ED",
"`  c #A480EC",
"'  c #A580EC",
"]  c #A180EE",
"[  c #A180F0",
"{  c #80A8EE",
"}  c #80A9EE",
"|  c #80A9EF",
" . c #83A5F0",
".. c #C680D3",
"X. c #C780D4",
"o. c #C680D7",
"O. c #C780D5",
"+. c #CB80D1",
"@. c #C980D2",
"#. c #C880D3",
"$. c #C980D3",
"%. c #CA80D2",
"&. c #C880D4",
"*. c #C980D3",
"=. c #99C3C9",
"-. c #9BC5CA",
";. c #9BC0CC",
":. c #80C6D5",
">. c #80CBD1",
",. c #80C9D3",
"<. c #80CBD3",
"1. c #80C8D5",
"2. c #80C8D4",
"3. c #92C3D1",
/* pixels */
"< u u 5 u 5 u d         ; 5 u d                 , 5 W 5 5 5 5 5 5 5 5 5 5 5 W                   , 5 u f         , 5 5 u 5 u u p ",
"< W W W 5 W W d         ; M u d                 , 5 W 5 5 5 5 W W 5 5 W 5 W u                   ; M u +.        l M W W 5 W u ` ",
"< 5 5 5 W 5 W d         ; M W d                 v M W M M             M M M W                   ; 5 u f         , 5 5 5 W 5 5 p ",
"< W 5 5 W W W d         ; M u d                                                                 ; M u +.        v 5 W W 5 W W p ",
"< 5 W W W W W d         ; M W d                                                                 ; 5 u f         , 5 W W W W 5 p ",
"< 5 5 5 W 5 W d         ; M u o.                                                                ; M u +.        ; 5 5 W 5 5 W p ",
"b W W W W M W o.        l M W &.                                                                l M W +.        ; M M W M W W ` ",
"Z F F F                 C F F                                                                   C A ,.J         C F F F F ,.F =.",
"                                                                                                                                ",
"                                                                                                                                ",
"                                                                                                                                ",
"                                                                                                                                ",
"& > > > > > > r                                                                                                 # > t > > > t w ",
"< 5 u 5 5 u u d                                                                                                 ; 5 5 5 5 u 5 p ",
"n M M M M M W ..                                                                                                v M M M M M W ] ",
"Z F F F F F ,.L                                                                                                 C F ,.F F F F -.",
"                        % > t r                                                                 # > t s                         ",
"                        , 5 u d                                                                 , 5 u f                         ",
"                        v M W o.                                                                v M W +.                        ",
"                        C F ,.P                                                                 C F 1.L                         ",
"                                        $ > > > > > > > > > > > > > > > > > t > > > t s                                         ",
"                                        , 5 5 u 5 5 5 5 5 5 5 5 5 5 5 5 5 5 5 5 u 5 u f                                         ",
"                                        ; M W 5 5 5 5 5 W 5 5 W 5 5 5 5 5 5 5 5 W W u +.                                        ",
"                                        ; 5 5 /  .B } } } B B B B B B B B B } V N M u f                                         ",
": > > r                                 , 5 W Y U h h h h h h h h h h h h h h g z M u f                                 # > > q ",
"4 W u d                                 , 5 u f             M M M M M M M     k j M u f                                 , 5 u i ",
"m 5 W d                                 , 5 u f                   5 W 5       @ j M u f                                 , 5 5 ( ",
"3 W W d                                 ; 5 W +.                              @ + 5 u f                                 ; 5 W i ",
"3 5 u                                   ; 5 u f                               k j M u f                                 v M W i ",
"3 5 u                                   ; 5 u f                               @ + 5 u f                                 , 5 W i ",
"3 5 u                                   ; 5 u f                               @ + 5 u f                                 ; 5 5 i ",
"3 5 u                                   ; 5 u f                                 O M u f                                 v 5 5 i ",
"3 5 u                                   ; 5 W f                                 + M u f                                 v 5 5 i ",
"3 5 u                                   ; M W f                                 + M u f                                 ; 5 5 i ",
"3 5 u                                   ; M W f                                 + 5 u f                                 , 5 5 i ",
"3 5 u                                   ; M W f                                 + 5 u f                                 ; 5 5 i ",
"3 5 u d                                 ; M u f                                 + 5 u f                                 , 5 u i ",
"3 5 u d                                 ; 5 u +.                                + 5 u f                                 , 5 5 i ",
"m 5 W o.                                , 5 u +.                                + 5 u f                                 v M W ( ",
"S G G                                   v 5 u d                                 + 5 u f                                 c D 1.3.",
"                                        ; 5 5 y 7 . . . . . . . . . . . . . . X 2 5 u f                                         ",
"                                        ; M 5 5 5 u u 5 5 5 u u 5 u u u 5 5 5 5 5 5 u +.                                        ",
"                                        l M M M W W W W M M W W M W M M W W M W M M W f                                         ",
"                                        c D D F D F D :.F D F 2.F D F D D D D :.D D :.P                                         ",
"                        # o 8 e                                                                 # o 8 6                         ",
"                        ; 5 u f                                                                 ; 5 u f                         ",
"                        l M W +.                                                                l M W +.                        ",
"                        x D :.H                                                                 c D :.H                         ",
"* - o 9 - - 9 r                                                                                                 # o o o o o 8 0 ",
"< 5 5 5 5 5 5 &.                                                                                                , 5 5 5 u 5 u p ",
"n M W 5 W M W o.                                                                                                v M W M M M W ` ",
"Z D D D D D :.H                                                                                                 x D :.D D :.D ;.",
"                                                                                                                                ",
"                                                                                                                                ",
"                                                                                                                                ",
"                                                                                                                                ",
"= - o - - - 9 e         # o 8 e                                                                 # o 8 6         # o o o o o o 0 ",
"1 5 5 5 u 5 u d         ; 5 u d                                                                 , 5 u f         , 5 u u 5 u u p ",
"1 W 5 W 5 5 u d         , 5 u &.                                                                , 5 u +.        , M W W 5 W u ] ",
"n 5 W W 5 W W d         , M u d                                                                 , M u f         , M W W 5 W W [ ",
"< 5 W W u W W d         ; M u d                 # o o o 8 o o o o o o o o o 8 e                 , M W f         , 5 5 5 5 W 5 a ",
"< W 5 5 u W W d         ; M W d                 , 5 u 5 u 5 5 5 5 5 5 5 5 5 u d                 , M u f         , 5 5 5 W 5 5 ] ",
"< 5 5 5 W 5 u d         ; M W d                 , 5 5 5 5 5 5 5 5 5 5 5 5 W u d                 ; 5 W f         , M 5 W 5 W W p ",
"n W M W M M W o.        v M W o.                , 5 5 5 W W 5 5 5 5 W W W W u o.                v M W +.        v M W W M W W ] "
};
