/* XPM */
static char *d611911d8a554ab39c2ef208470f7495mRikkUFdbwgHCqbc[] = {
/* columns rows colors chars-per-pixel */
"64 64 145 2 ",
"   c None",
".  c #5B52DA",
"X  c #6050DD",
"o  c #7F4CE5",
"O  c #7752E8",
"+  c #537FEB",
"@  c #5A7FF1",
"#  c #6E6CFE",
"$  c #7B67FE",
"%  c #746BFE",
"&  c #7C6CFF",
"*  c #6D73FE",
"=  c #677DFE",
"-  c #6A7DFE",
";  c #7574FE",
":  c #7C73FE",
">  c #737CFE",
",  c #7F7FFE",
"<  c #AF55CF",
"1  c #B055CF",
"2  c #AF56D3",
"3  c #B055D1",
"4  c #B77FDF",
"5  c #B87EDF",
"6  c #804DE6",
"7  c #834FE8",
"8  c #8067FE",
"9  c #836CFE",
"0  c #8B6DFF",
"q  c #926DFE",
"w  c #8573FE",
"e  c #8B73FD",
"r  c #817EFE",
"t  c #8C7CFE",
"y  c #9373FE",
"u  c #9875FF",
"i  c #917CFE",
"p  c #AC7EE7",
"a  c #B377E2",
"s  c #B77EE1",
"d  c #B87FE1",
"f  c #5CA5DF",
"g  c #5AACD9",
"h  c #5FB5D5",
"j  c #5FB0D8",
"k  c #60ADDD",
"l  c #7EB7DF",
"z  c #7EB9DE",
"x  c #5481EC",
"c  c #5985EF",
"v  c #5A8BEA",
"b  c #5D9CE0",
"n  c #7897EF",
"m  c #7499EF",
"M  c #7C99EF",
"N  c #6683FE",
"B  c #6B84FF",
"V  c #6C8BFE",
"C  c #7384FE",
"Z  c #7E81FE",
"A  c #758BFE",
"S  c #7C8CFE",
"D  c #6C97F1",
"F  c #6F99F1",
"G  c #6E91FE",
"H  c #7B97F1",
"J  c #7599F0",
"K  c #7C9BF0",
"L  c #7291FE",
"P  c #7B94FF",
"I  c #7D99FF",
"U  c #7EAFE6",
"Y  c #74A0EE",
"T  c #77ACE8",
"R  c #7CABE9",
"E  c #7FB1E6",
"W  c #7EB1E8",
"Q  c #7BA6F1",
"!  c #7BA8F1",
"~  c #B880DF",
"^  c #A49FDD",
"/  c #ADACCF",
"(  c #B0A9CF",
")  c #AEB1CC",
"_  c #AFA6D2",
"`  c #AEA9D2",
"'  c #B0A8D1",
"]  c #8E94ED",
"[  c #839BEE",
"{  c #8A9BEE",
"}  c #929BEF",
"|  c #8C82F6",
" . c #858DF1",
".. c #898FF0",
"X. c #8182FE",
"o. c #8B84FE",
"O. c #8588FF",
"+. c #8489FF",
"@. c #8689FF",
"#. c #878FFF",
"$. c #838CFE",
"%. c #8889FA",
"&. c #8989FB",
"*. c #898AFB",
"=. c #8C8BFE",
"-. c #9283FF",
";. c #9087FF",
":. c #9586FF",
">. c #9385FE",
",. c #9289FF",
"<. c #9389FF",
"1. c #928BFE",
"2. c #8091F1",
"3. c #8092F4",
"4. c #8891F1",
"5. c #849BF2",
"6. c #8D98F0",
"7. c #8393FE",
"8. c #8B92FF",
"9. c #809AFF",
"0. c #9391FE",
"q. c #9992FF",
"w. c #AC80E7",
"e. c #A985E9",
"r. c #B780E0",
"t. c #B780E1",
"y. c #B485E2",
"u. c #B486E2",
"i. c #B980E1",
"p. c #80AEE6",
"a. c #80AFE6",
"s. c #81AFE6",
"d. c #80AFE7",
"f. c #80AEE7",
"g. c #83AAE8",
"h. c #80AEE8",
"j. c #83AFE8",
"k. c #84AFE8",
"l. c #80B7E0",
"z. c #80B0E5",
"x. c #80B2E5",
"c. c #80B0E6",
"v. c #80B0E7",
"b. c #81B0E7",
"n. c #80B1E6",
/* pixels */
"                                                                                                                                ",
"                                                                                                                                ",
"                                                                                                                                ",
"                                                                                                                                ",
"                                                                                                                                ",
"                                                                                                                                ",
"                                                                                                                                ",
"                                                                                                                                ",
"                                                                                                                                ",
"                                                                                                                                ",
"                                                                                                                                ",
"                                                                                                                                ",
"                                                                                                                                ",
"                                                                                                                                ",
"                                                                                                                                ",
"                                                                                                                                ",
"o o o o 6 6 6 3         X o o 3                 . o o o o o o o o o o o o 6 6 <                 . o o 2         . o o o o o o 6 ",
", , , r , r r s         @ , , d                 + , , , , , , , , , , , , r , d                 + , , s         + , , r , r r r ",
", , , X., X.X.d         @ , , r.                x , , , , , Z Z Z Z Z , Z Z X.r.                x , , s         + , , , X.X., r ",
", , , X., X., i.        k E U '                 h z z z z z z z z z z z z z z )                 g E E `         + , , , , , , r ",
", , , , , , , d                                                                                                 + , X., , X., r ",
", , , , , , , d                                                                                                 + , X., , , , r ",
"Z Z Z , , Z X.4                                                                                                 x Z , , , Z , X.",
"z z z z z l l /                                                                                                 j l z l l l l l.",
"                . o o o o o o o o o o o o 6 6 1                                 . o 6 o o o o o o o o o o o 6 2                 ",
"                + , r , , , , , r , , , , , , s                                 + , r , , , , , , , , , , , r d                 ",
"                + , , , Z X., , X.Z X.X.X., , s                                 + Z , , , , X., X., , Z , , X.s                 ",
"                x , , &.j.z.E E E E E T C , r s                                 + , , &.k.E E z.E E E T C X.r 4                 ",
"                + Z X.u.                x Z X.s                                 + , , u.                c , r 5                 ",
"                + Z X.d                 + Z r 4                                 + , r d                 + Z r d                 ",
"                + Z X.~                 + , r s                                 + X.r d                 + , X.d                 ",
"                x Z X.a                 + , r d                                 + , r d                 + , , 5                 ",
"                x X., e 6 o 6 1         x , r s                                 x , X.r.        . o o O ; , r r.                ",
"                + Z , , r r r d         + Z r i.                                x , , d         + , r , , , r s                 ",
"                + , , X.Z , , s         + Z X.s                                 + , r d         x Z Z , , Z X.s                 ",
"                g E E E E E z.(         x , X.s                                 + , X.4         g E E E E E z.'                 ",
"                                        x Z , d                                 + Z X.s                                         ",
"                                        + Z X.d                                 + Z X.s                                         ",
"                                        + Z X.d                                 + Z X.d                                         ",
"                                        x Z X.s                                 + Z X.s                                         ",
"                                        + , X.s                                 + Z X.s                                         ",
"                                        + , X.s                                 + , r s                                         ",
"                                        + , X.s                                 + Z , d                                         ",
"                                        + , X.4                                 + , X.a                                         ",
"o o o o o o o o o o o o 6 o o o o o o O , , r d                                 + , , e 7 o o o o o o o o o o o o o o 6 o o o o ",
", , , , r , , , r , , , r r , , , , r , , , X.d                                 + , , , , r r r , , , , r r , , , , , r , , r r ",
", , , , , X.Z , , , , , , X., Z X., Z X.Z , X.s                                 + Z , , , X.X.X.X.Z , , , , , , , , , , , , X., ",
"Z , , &.g.j.U U U f.U U U U U U U f.z.U U f.f._                                 g U E f.U f.f.z.f.z.f.E U U U W U U U R C Z Z , ",
", , , e.] 2. . ...4. .H n J n M [ { { { { 6.] 5.B C C C > > > , X.X.X.X.o.$.Z A K [ [ { { { { { { } } Q ! ! ! ! g.Q Y b c Z , , ",
"Z , , p | Z r t e e w r C C C Z O.o.o.o.o.o.-.X.B C C > > > , X.X.X.X.O.O.$.Z Z Z $.o.o.o.o.o.;.1.1.:.$.P P P I 9.G L v x Z , , ",
"Z , , w.| Z , r w e w t Z A A S $.&.&.&.o.o.;.X.B C C C C C Z Z X.$.X.O.$.S C Z Z X.$.o.&.=.=.1.1.1.<.;.P P P I I G V x + , , , ",
"R R R ^ | , r r t e t w w A S S $.$.*.&.=.o.o.X.B B C C C C A X.o.$.$.O.O.S A S $.$.$.$.&.=.1.1.1.1.;.:.$.P P I P N N c f R R R ",
"J J H 3., X.r , r t w w e t S 7.7.$.$.O.&.=.1.X.B B C C C A A S $.O.$.O.$.S A S $.$.7.7.8.=.1.1.1.1.;.;.o.S 7.7.N N N V D F F J ",
"C A A C Z , , X., t t t t t o.7.7.7.$.&.&.=.1.A B C C C A S S S $.O.$.O.O.S S S 7.7.7.7.8.8.=.1.=.;.o.;.;.S 7.A B N N N B N B C ",
"C > > > , , X.r X.X.t t t t t o.7.$.$.$.*.8.8.S V A A A A S S S $.$.$.$.O.S S P 7.7.7.7.8.8.8.=.=.=.;.;.<.7.7.B B N N N V V B C ",
"> > > > , , r , , , r t t t t i o.$.$.*.8.8.0.A V V A S S S S S $.$.O.$.$.7.P 7.7.7.7.7.8.8.8.=.=.=.=.1.1.8.A B N B B B - - - - ",
"> > > , , r r X.X., X.o.o.i t t i O.7.8.8.8.=.A V V A A S S S S $.$.O.$.7.7.P 7.7.7.7.7.8.8.8.*.=.=.0.0.q.8.N - - = - - - - - - ",
"B C C C , r r r r r X.o.o.o.t t i -.8.8.8.8.8.V V V A A A S S S $.$.$.8.8.7.P 7.7.7.$.$.*.&.o.o.=.=.1.1.:.: = B = = = - - B B B ",
"C C A A C X., , r X.X.o.o.o.o.o.-.:.:.*.8.8.8.V G G A A S S S S $.$.7.8.8.7.P S Z Z r r w w w e 0 0 q q q $ % * N N N B B B B B ",
"C C A A C Z X.r Z o.o.o.o.o.o.-.:.:.i e e i -.V G L L L S S S S $.$.7.8.8., % & : w : w w w w e e q q q q % % % % - N B B N N C ",
"C A A C C Z r X.X.o.o.o.o.o.o.;.-.e e e y y u Z G G L L S S S 7.7.7.8.X.& % : : : 9 9 9 w w w e 0 0 y u u % % % % % - N N N N C ",
"A C C C C C , X.O.$.O.O.o.o.o.t 0 e e e e y u y G G L L P P 7.7.Z : $ 9 $ % & & & 9 9 9 9 9 9 0 0 q y y y ; # # % % % ; N V V V ",
"C C C C C C Z o.&.$.$.$.O.t 9 9 0 e e e e y y u X.G L A A , : % $ $ $ 9 9 ; : & & $ $ 9 9 9 9 0 0 q u u y * # # % % % % $ B V V ",
"V C C C C A S &.&.$.Z , 9 9 9 0 e e e e e i y u i * * # % % % % % $ $ 9 9 ; ; : & & $ 9 9 0 9 0 0 q q q u # # # % % % % $ $ > V "
};
