/* XPM */
static char *_4d7f74ccf2148f39b51508e23c43ff8BaqEcIlGUKHP7Bhi[] = {
/* columns rows colors chars-per-pixel */
"64 64 147 2 ",
"   c #3F1D24",
".  c #4F1722",
"X  c #451B23",
"o  c #4C1923",
"O  c #4D1F29",
"+  c #541621",
"@  c #581521",
"#  c #511D27",
"$  c #5A1A26",
"%  c #531D28",
"&  c #641E2B",
"*  c #45242C",
"=  c #4B242D",
"-  c #49282F",
";  c #53222C",
":  c #5A232C",
">  c #552E2D",
",  c #4A2730",
"<  c #4A2931",
"1  c #4E2F38",
"2  c #512730",
"3  c #5B2732",
"4  c #542C35",
"5  c #5B2833",
"6  c #4F3038",
"7  c #55343C",
"8  c #59353F",
"9  c #5E3C3A",
"0  c #632935",
"q  c #6A2A36",
"w  c #6D2E3B",
"e  c #69313E",
"r  c #734F06",
"t  c #715305",
"y  c #715B03",
"u  c #7E5D06",
"i  c #716300",
"p  c #7D6504",
"a  c #7E6B02",
"s  c #7F7000",
"d  c #64423D",
"f  c #4D3F49",
"g  c #5A3740",
"h  c #5E3A43",
"j  c #563F49",
"k  c #633742",
"l  c #603B44",
"z  c #0C5B67",
"x  c #0C5E6A",
"c  c #175764",
"v  c #0B616D",
"b  c #15626F",
"n  c #096571",
"m  c #0B6A76",
"M  c #0C6D7A",
"N  c #136471",
"B  c #106976",
"V  c #136D7A",
"C  c #0C717D",
"Z  c #4D434D",
"A  c #57404A",
"S  c #5A424C",
"D  c #494751",
"F  c #4A4954",
"G  c #664241",
"H  c #684440",
"J  c #96061C",
"K  c #98041C",
"L  c #950B1B",
"P  c #95121B",
"I  c #8E0C23",
"U  c #910920",
"Y  c #8D1329",
"T  c #826506",
"R  c #846B03",
"E  c #896E04",
"W  c #867500",
"Q  c #8D7402",
"!  c #8C7A01",
"~  c #937C02",
"^  c #9C7E08",
"/  c #938100",
"(  c #9A8601",
")  c #9F8A06",
"_  c #9D8308",
"`  c #A08504",
"'  c #A28D01",
"]  c #A59100",
"[  c #AB9503",
"{  c #AF9A00",
"}  c #B39D00",
"|  c #B7A101",
" . c #BAA301",
".. c #BEA605",
"X. c #BFA708",
"o. c #C0A706",
"O. c #C2AA00",
"+. c #C3AC00",
"@. c #C5AC00",
"#. c #C5AD00",
"$. c #C4AC01",
"%. c #C1A905",
"&. c #C2A808",
"*. c #0C7683",
"=. c #0E7A86",
"-. c #0B7D8B",
";. c #0D7D8B",
":. c #127683",
">. c #137986",
",. c #127B89",
"<. c #0A818F",
"1. c #10828F",
"2. c #0A8491",
"3. c #088C9A",
"4. c #138493",
"5. c #128995",
"6. c #118D99",
"7. c #08909F",
"8. c #0695A4",
"9. c #0698A7",
"0. c #059BAB",
"q. c #0E9EAC",
"w. c #1199A7",
"e. c #109EAB",
"r. c #039FB0",
"t. c #01A6B7",
"y. c #00ABBD",
"u. c #00B4C6",
"i. c #09B5C5",
"p. c #00B7C9",
"a. c #00B9CB",
"s. c #02B9CA",
"d. c #00BCCE",
"f. c #00BFD1",
"g. c #00C0D3",
"h. c #00C1D3",
"j. c #00C4D7",
"k. c #00C6D9",
"l. c #01C8DA",
"z. c #00CFE1",
"x. c #00D0E2",
"c. c #00D6E8",
"v. c #00D9EB",
"b. c #00DFF2",
"n. c #00E2F5",
"m. c #00E6F9",
"M. c #00EBFE",
/* pixels */
"#.#.#.#.#.#. .` K K K L ]  .#.%.l h 8 3 K K K I n *.<.<.<.<.<.<.<.<.<.<.<.-.M x K K K K 4 g l H #.#. .` K K K L ]  .#.#.#.#.#.%.",
"#.#.#.#.#.O.} ~ K K K L ( | +.%.h h 7 ; K K K I -.y.a.d.d.d.d.d.d.d.d.d.d.u.9.B K K K K < 8 h H #.O.} ~ K K K L ( | +.#.#.#.#.%.",
"#.#.#.#.#.O.} Q K K K L / } +.%.h h 7 ; K K K I <.y.f.g.g.g.g.g.g.g.g.g.g.a.0.B K K K K , 7 h H #.O.} Q K K K L / } +.#.#.#.#.%.",
"#.#.#.#.#.O.} Q K K K L / } +.%.h h 7 ; K K K I b :.4.4.4.4.4.4.4.4.4.4.4.,.V c K K K K , 7 h H #.O.} Q K K K L / } +.#.#.#.#.%.",
"#.#.#.#.#.O.} Q K K K L / } +.%.h h 7 ; K K K K K K K K K K K K K K K K K K K K K K K K , 7 h H #.O.} Q K K K L / } #.#.#.#.#.%.",
"#.O.O.O.O.O.} Q K K K L / } O...h h 7 ; K K K K K K K K K K K K K K K K K K K K K K K K - 7 h d O.O.{ Q K K K L / } O.O.O.O.O...",
" .} } } } { ' R K K K L W ' } [ 7 7 1 O K K K K K K K K K K K K K K K K K K K K K K K K * 1 7 9 } { ' R K K K L W ' } } } } } } ",
"` ~ Q Q Q Q R t K K K L y R Q E : : # @ K K K K K K K K K K K K K K K K K K K K K K K K . % : : Q Q R r K K K L y R Q Q Q Q ~ ^ ",
"K K K K K K K K K K K K K K K K K K K K K K K K K K K K K K K K K K K K K K K K K K K K K K K K K K K K K K K K K K K K K K K K ",
"K K K K K K K K K K K K K K K K K K K K K K K K K K K K K K K K K K K K K K K K K K K K K K K K K K K K K K K K K K K K K K K K ",
"K K K K K K K K K K K K K K K K K K K K K K K K K K K K K K K K K K K K K K K K K K K K K K K K K K K K K K K K K K K K K K K K ",
"P L L L L L L L K K K K K K K K K K K K K K K K K K K K K K K K K K K K K K K K K K K K K K K K K K K K K K K K L L L L L L L P ",
"] ( / / / / W y K K K K K K K K   * , , , , , , , , , , , , , , , , , , , , , , , , , , , - * o K K K K K K K L i ! / / / / ( ' ",
" .} } } } } ' R K K K K K K K K * 1 7 7 7 7 7 7 7 7 7 7 7 7 7 7 7 7 7 7 7 7 7 7 7 7 7 7 7 7 1 O K K K K K K K L W ] } } } } } } ",
"| } } } } { ' R K K K K K K K K * 1 7 7 g h h h h h h h h h h h h h h h h h h h h h h g 7 7 1 ; K K K K K K K L W ' { } } } } } ",
"` ~ Q Q Q Q R t K K K K L L L L # ; ; 5 9 d H H H H H H H H H H H H H H H H H H H H d 9 3 ; ; $ L L L L K K K L y R Q Q Q Q ~ _ ",
"K K K K K K K K K K K L i W ! p K K K L '  .#.#.#.#.#.#.#.#.#.#.#.#.#.#.#.#.#.#.#.+.| _ K K K L s ! W y K K K K K K K K K K K K ",
"K K K K K K K K K K K L W ] ' Q K K K L ( | +.#.#.#.#.#.#.#.#.#.#.#.#.#.#.#.#.#.#.O.} ~ K K K L ! ] ' R K K K K K K K K K K K K ",
"K K K K K K K K K K K L ! ' ' Q K K K L ( | #.#.#.#.#.#.#.#.#.#.#.#.#.#.#.#.#.#.#.O.} ~ K K K L ! ' ' R K K K K K K K K K K K K ",
"K K K K K K K K K K K L p E Q T L L L P ' } ..o.....o.o.........................o...} _ L L L P R Q R u K K K K K K K K K K K K ",
"4 < , , , , , , , , * # K K K L W ! ( ' 8 h l l l l l l l l l l l l l l l l l l l h h 9 ] ( ! R K K K K * * , , , , , , , - , : ",
"g 7 7 7 7 7 7 7 7 7 1 ; K K K L ! [ | | h h l l l l l l l l l l l l l l l l l l l l h d  .} ] Q K K K K * 6 7 7 7 7 7 7 7 7 7 0 ",
"l h h h h h h h h h 7 ; K K K L / } O.%.l l l l l l l l l l l l l l l l l l l l l l l G #.O.} Q K K K K , 7 h h h h h h h h h q ",
"S S S S w w w w l h 7 ; K K K L / } +.%.l l l h Z Z Z Z Z Z Z Z Z Z Z Z Z Z Z f h l l G #.O.} Q K K K K , 7 h l w w w w A A j 8 ",
"n C M x K K K K k h 7 ; K K K L / } +.%.h l l Z M ;.4.4.4.4.4.4.4.4.4.4.4.1.*.v h l l G #.O.} Q K K K K , 7 h w K K K Y n *.M x ",
"<.t.0.V K K K K k h 7 ; K K K L / } +.%.h l l D 5.i.l.l.l.l.l.l.l.l.l.l.l.f.w.C h l l G #.O.} Q K K K K , 7 h w K K K Y 2.y.0.M ",
"8.f.u.>.K K K K k h 7 ; K K K L / } +.%.l l l F q.c.m.m.m.m.m.m.m.m.m.m.m.b.i.=.h l l G #.O.} Q K K K K , 7 h w K K K Y 9.g.u.=.",
"9.j.a.>.K K K K k h 7 ; K K K L / } +.%.l l l F q.v.M.M.M.M.M.M.M.M.M.M.M.n.a.=.h l l G #.O.} Q K K K K , 7 h w K K K Y 0.l.a.=.",
"9.j.a.,.K K K K k h 7 ; K K K L / } +.%.l l l F q.v.M.M.M.M.M.M.M.M.M.M.M.n.a.=.h l l G #.O.} Q K K K K , 7 h w K K K Y 0.l.a.=.",
"9.j.a.>.K K K K k h 7 ; K K K L / } +.%.l l l F q.v.M.M.M.M.M.M.M.M.M.M.M.n.a.=.h l l G #.O.} Q K K K K , 7 h w K K K Y 0.k.a.=.",
"9.j.a.,.K K K K k h 7 ; K K K L / } O.%.l l l F q.v.M.M.M.M.M.M.M.M.M.M.M.n.a.=.h l l G #.O.} Q K K K K , 7 h w K K K Y 0.l.a.=.",
"9.j.a.>.K K K K k h 7 ; K K K L / } +.%.l l l F q.v.M.M.M.M.M.M.M.M.M.M.M.n.a.=.h l l G #.O.} Q K K K K , 7 h w K K K Y 0.k.a.=.",
"9.j.a.,.K K K K k h 7 ; K K K L / } +.%.h l l F q.v.M.M.M.M.M.M.M.M.M.M.M.n.a.=.h l l G #.O.} Q K K K K , 7 h w K K K Y 0.k.a.=.",
"9.j.a.>.K K K K k h 7 ; K K K L / } +.%.h l l F q.v.M.M.M.M.M.M.M.M.M.M.M.n.a.=.h l l G #.O.} Q K K K K , 7 h w K K K Y 0.k.a.=.",
"9.j.a.,.K K K K k h 7 ; K K K L / } +.%.l l l F q.v.M.M.M.M.M.M.M.M.M.M.M.n.a.=.h l l G #.O.} Q K K K K , 7 h w K K K Y 0.k.a.=.",
"9.j.a.,.K K K K k h 7 ; K K K L / } O.%.l l l F q.v.M.M.M.M.M.M.M.M.M.M.M.n.a.=.h l l G #.O.} Q K K K K , 7 h w K K K Y 0.l.a.=.",
"9.j.a.,.K K K K k h 7 ; K K K L / } O.%.l l l F q.v.M.M.M.M.M.M.M.M.M.M.M.n.a.=.h l l G #.O.} Q K K K K , 7 h w K K K Y 0.k.a.=.",
"8.g.u.>.K K K K k h 7 ; K K K L / } +.%.l l l F q.c.m.m.m.m.m.m.m.m.m.m.m.b.i.=.h l l G #.O.} Q K K K K , 7 h w K K K Y 9.j.u.=.",
"2.y.0.V K K K K k h 7 ; K K K L / } +.%.l l l F 6.a.z.x.x.x.x.x.x.x.x.x.x.k.e.C h l l G #.O.} Q K K K K , 7 h w K K K Y 2.y.r.C ",
"m ,.:.N K K K K k h 7 ; K K K L / } #.%.l l l Z C 4.6.6.6.6.6.6.6.6.6.6.6.5.=.v h l l G #.O.} Q K K K K , 7 h w K K K Y m ,.:.v ",
"l l l l k k k k l h 7 ; K K K L / } +.%.h l l h h j j j h h h h h j j j h h h h l l l G #.O.} Q K K K K , 7 h l e e e e l h h q ",
"h h h h h h h h h h 7 ; K K K L / } O.%.h l l l l h l h l l l l l h l h l l l l l l l G #.O.} Q K K K K , 7 h h h h h h h h g 0 ",
"8 7 7 7 7 7 7 7 7 7 1 ; K K K L ! ] } } h h l l l l l h l l l l l l l h l l l l l l h d  .} ] Q K K K K * 1 7 7 7 7 7 7 7 7 7 0 ",
"3 ; ; ; ; ; ; ; ; ; ; $ L L L P R Q / ) 9 G G G G G G G G G G G G G G G G G G G G G l d ` ~ W T L L L L # ; ; ; ; ; ; ; ; ; ; & ",
"K K K K K K K K K K K L a ! ! R K K K L ]  .#.#.#.#.#.#.#.#.#.#.#.#.#.#.#.#.#.#.#.#. .` K K K L W ! ! p K K K K K K K K K K K K ",
"K K K K K K K K K K K L ! ] ' Q K K K L ( | +.#.#.#.#.#.#.#.#.#.#.#.#.#.#.#.#.#.#.O.} ~ K K K L ! ] ' E K K K K K K K K K K K K ",
"K K K K K K K K K K K L W ' ' Q K K K L ( | +.#.#.#.#.#.#.#.#.#.#.#.#.#.#.#.#.#.#.O.} ~ K K K L ! ' ' R K K K K K K K K K K K K ",
"L L L L L L J J K K K L y W Q p K K K L '  .O.O.O.O.O.O.O.O.O.O.O.O.O.O.O.O.O.O.O.O.} _ K K K L p W R t K K K K J J J J J J L L ",
"] ( / / / ~ W y K K K K K K K K O = 2 4 7 h l l l l l l l l l l l l l l l l l l l l h 7 4 ; = % K K K K K K K L i W / / / / ( ) ",
" .} } } } } ' R K K K K K K K K * 1 7 8 g h h h h h h h h h h h h h h h h h h h h h h g 7 7 1 ; K K K K K K K L W ] } } } } } } ",
" .} } } } } ' R K K K K K K K K * 1 7 7 7 7 7 7 7 7 7 7 7 7 7 7 7 7 7 7 7 7 7 7 7 7 7 7 7 7 1 O K K K K K K K L W ] } } } } } } ",
"' / ~ ! ! ! W t K K K K K K K K o = ; ; ; ; ; ; ; ; ; ; ; ; ; ; ; ; ; ; ; ; ; ; ; ; ; ; ; ; O + K K K K K K K L y W ! ! ! ~ / _ ",
"K K K K K K K K K K K K K K K K K K K K K K K K K K K K K K K K K K K K K K K K K K K K K K K K K K K K K K K K K K K K K K K K ",
"K K K K K K K K K K K K K K K K K K K K K K K K K K K K K K K K K K K K K K K K K K K K K K K K K K K K K K K K K K K K K K K K ",
"K K K K K K K K K K K K K K K K K K K K K K K K K K K K K K K K K K K K K K K K K K K K K K K K K K K K K K K K K K K K K K K K ",
"L L K K K K J K K K K K J K K K K K K K K K K K K K K K K K K K K K K K K K K K K K K K K K K K K K J K K K K K J J K K K K L L ",
"] ( / / / ~ W y K K K L i W ~ ! = = * . K K K K K K K K K K K K K K K K K K K K K K K K X * = > ~ ~ W y K K K L i W ~ / / / ( ) ",
" .| } } } } ] R K K K L W ] } } 7 7 1 O K K K K K K K K K K K K K K K K K K K K K K K K * 1 7 9 } } ' R K K K L ! ] } } } } | } ",
"#.+.+.+.O.O.} Q K K K L / } O...h h 7 ; K K K K K K K K K K K K K K K K K K K K K K K K - 7 h H +.O.} Q K K K L / } O.O.O.O.O.o.",
"#.#.#.#.#.O.} Q K K K L / } +.%.h h 7 ; K K K K J U U U J U U U U U U U U U U J K K K K , 7 h H #.O.} Q K K K L / } +.#.#.#.#.%.",
"#.#.#.#.#.O.} Q K K K L / } +.%.h h 7 ; K K K I n *.<.<.<.<.<.<.<.<.<.<.<.-.M z K K K K , 7 h H #.O.} Q K K K L / } +.#.#.#.#.%.",
"#.#.#.#.#.O.} Q K K K L / } +.%.h h 7 ; K K K I -.y.d.f.f.f.f.f.f.f.f.f.f.p.9.B K K K K , 7 h H #.O.} Q K K K L / } +.#.#.#.#.%.",
"#.#.#.#.#.O.} ~ K K K L ( | +.%.h h 7 ; K K K I 2.u.g.k.j.j.k.k.j.k.k.j.j.d.0.B K K K K < 7 h H #.O.} ~ K K K L ( | +.#.#.#.#.%.",
"#.#.#.#.#.O.| ` K K K L ]  .#.&.h h 7 3 K K K I m 2.7.8.8.8.8.8.8.8.8.8.8.3.*.v K K K K 4 8 h H #.O.| ` K K K L ]  .#.#.#.#.#.X."
};
