/* XPM */
static char *_da70eb954af41a8b0642b0242253324zhfBimGGJ6PnK3qC[] = {
/* columns rows colors chars-per-pixel */
"64 64 132 2 ",
"   c None",
".  c #01010D",
"X  c #0A000C",
"o  c #020011",
"O  c #561F2A",
"+  c #51212C",
"@  c #5C2732",
"#  c #542C36",
"$  c #5A2C36",
"%  c #7F2024",
"&  c #7F2A27",
"*  c #7C272A",
"=  c #7C2929",
"-  c #7A3B27",
";  c #7A332C",
":  c #7D3E2B",
">  c #602935",
",  c #7D3330",
"<  c #7C3A33",
"1  c #7D452D",
"2  c #7D4230",
"3  c #5E3943",
"4  c #613C44",
"5  c #1B616E",
"6  c #0A6874",
"7  c #1D6C7A",
"8  c #96061D",
"9  c #98041C",
"0  c #960C1B",
"q  c #98081B",
"w  c #8E1C1D",
"e  c #94121B",
"r  c #911B1C",
"t  c #80251E",
"y  c #8C201F",
"u  c #8D291F",
"i  c #9C3F15",
"p  c #801F26",
"a  c #881D21",
"s  c #852222",
"d  c #8A2122",
"f  c #832C25",
"g  c #8A2A24",
"h  c #812728",
"j  c #863225",
"k  c #8A3022",
"l  c #853927",
"z  c #81372C",
"x  c #823D2D",
"c  c #883231",
"v  c #8A3C34",
"b  c #834117",
"n  c #88541C",
"m  c #926B06",
"M  c #8D7401",
"N  c #8E7900",
"B  c #927105",
"V  c #947A01",
"C  c #9F7E04",
"Z  c #9A6B1F",
"A  c #A07E04",
"S  c #A57D16",
"D  c #A4751D",
"F  c #A6791B",
"G  c #AB7C1D",
"H  c #83452D",
"J  c #834A2C",
"K  c #885427",
"L  c #8E532E",
"P  c #93562F",
"I  c #965E2A",
"U  c #9B5E2F",
"Y  c #854633",
"T  c #874834",
"R  c #8C4C35",
"E  c #8B4738",
"W  c #934C3C",
"Q  c #965336",
"!  c #985635",
"~  c #975931",
"^  c #9A5B32",
"/  c #955038",
"(  c #936123",
")  c #9A6427",
"_  c #9D6B22",
"`  c #9D622D",
"'  c #9F6828",
"]  c #A46E26",
"[  c #A0662B",
"{  c #A26929",
"}  c #A67323",
"|  c #A87621",
" . c #A97820",
".. c #8F4342",
"X. c #A08602",
"o. c #A98505",
"O. c #A38C00",
"+. c #A59101",
"@. c #AC9400",
"#. c #AE9800",
"$. c #B5930D",
"%. c #B8950E",
"&. c #BD9D0A",
"*. c #AC8514",
"=. c #AD811B",
"-. c #B18717",
";. c #B48B14",
":. c #B08419",
">. c #B79111",
",. c #BCA400",
"<. c #BFA800",
"1. c #C5AD01",
"2. c #C5AD00",
"3. c #C2AB00",
"4. c #0D7380",
"5. c #11838F",
"6. c #118390",
"7. c #128693",
"8. c #128A97",
"9. c #128B98",
"0. c #22808D",
"q. c #238390",
"w. c #238492",
"e. c #1799A5",
"r. c #1799A6",
"t. c #20BDCA",
"y. c #20BECB",
"u. c #21C3D0",
"i. c #22C4D1",
"p. c #22C5D3",
"a. c #22C6D3",
"s. c #22C7D4",
/* pixels */
"                                                                                                                                ",
"                                                                                                                                ",
"                                                                                                                                ",
"                                                                                                                                ",
"                                                                                                                                ",
"                                                                                                                                ",
"                                                                                                                                ",
"                                                                                                                                ",
"                                                                                                                                ",
"                                                                                                                                ",
"                                                                                                                                ",
"                                                                                                                                ",
"                                                                                                                                ",
"                                                                                                                                ",
"                                                                                                                                ",
"                                                                                                                                ",
"3.2.2.2.2.2.3.@.9 9 9 9 #.3.2.3.4 4 3 > 9 9 9 8 4.8.9.9.9.9.9.9.9.9.9.9.9.9.7.6 8 9 9 9 $ 3 4 4 2.2.3.@.9 9 9 9 @.3.2.2.2.2.2.2.",
"3.2.2.2.2.2.3.O.9 9 9 9 +.3.2.3.4 4 3 @ 9 9 9 8 e.u.i.i.i.i.i.i.i.i.i.i.i.i.y.5.8 9 9 9 $ 3 4 4 2.2.3.+.9 9 9 9 +.3.2.2.2.2.2.2.",
"3.2.2.2.2.2.3.O.9 9 9 9 O.3.3.3.3 3 3 @ 9 9 9 8 e.i.s.s.s.s.s.s.s.s.s.s.s.s.y.6.8 9 9 9 # 3 3 4 3.3.<.O.9 9 9 9 O.3.2.2.2.2.2.2.",
"3.2.2.2.2.2.3.O.9 9 9 9 N O.O.O.# # # O 9 9 9 8 7 q.w.w.w.w.w.w.w.w.w.w.w.w.0.5 8 9 9 9 + # # # O.O.O.M 9 9 9 9 O.3.2.2.2.2.2.2.",
"3.2.2.2.2.2.3.O.9 9 9 9 9 9 9 9 9 9 9 9 9 9 9 9 9 9 s d 0 g v v v c g e 0 e 9 9 9 9 9 9 9 9 9 9 9 9 9 9 9 9 9 9 O.3.2.2.2.2.2.2.",
"3.2.2.2.2.2.3.O.9 9 9 9 9 9 9 9 9 9 9 9 9 9 9 9 9 9 - ( Y S $.G =.*.*.H b 0 9 9 9 9 9 9 9 9 9 9 9 9 9 9 9 9 9 9 O.3.2.2.2.2.2.2.",
"3.3.3.3.3.3.<.X.9 9 9 9 9 9 9 9 9 9 9 9 9 9 9 9 9 9 j Q =.` ! W / [ / D n q 9 9 9 9 9 9 9 9 9 9 9 9 9 9 9 9 9 9 O.<.3.3.3.3.3.3.",
"o.A A A A A C m 9 9 9 9 9 9 9 9 9 9 9 9 9 9 9 9 9 9 ; ` } { ^ { ` `  .Q i t 9 9 9 9 9 9 9 9 9 9 9 9 9 9 9 9 9 9 B C A A A A A o.",
"9 9 9 9 9 9 9 9 V O.O.O.O.O.O.O.O.O.O.O.O.O.O.M 9 9 ; ' ^ Q ` ^ { ^ Q ~ L - 9 9 M O.O.O.O.O.O.O.O.O.O.O.O.O.O.V 9 9 9 9 9 9 9 9 ",
"9 9 9 9 9 9 9 9 O.<.3.3.3.3.3.3.3.3.3.3.3.3.<.O.9 9 k Q >. .%.{ ! >.{ } } l 9 9 O.<.3.3.3.3.3.3.3.3.3.3.3.3.<.O.9 9 9 9 9 9 9 9 ",
"9 9 9 9 9 9 9 9 O.3.2.2.3.3.3.3.3.3.3.3.2.2.3.O.9 9 ; F W } W { >.W | ! ^ 1 9 9 O.3.2.2.3.3.3.3.3.3.3.3.2.2.3.O.9 9 9 9 9 9 9 9 ",
"9 9 9 9 9 9 9 9 O.3.2.,.@.O.O.O.O.O.O.@.,.2.3.O.9 9 g R %.W ` Q [ G W G G , 9 9 O.3.2.,.@.O.O.O.O.O.O.@.,.2.3.O.9 9 9 9 9 9 9 9 ",
"9 9 9 9 9 9 9 9 O.3.3.@.9 9 9 9 9 9 9 9 @.3.3.O.9 9 h I ^ { } W ! ^ >.! U 1 q 9 O.3.3.@.9 9 9 9 9 9 9 9 @.3.3.O.9 9 9 9 9 9 9 9 ",
"9 9 9 9 9 9 9 9 O.3.3.O.9 9 9 9 9 9 9 9 O.3.3.O.9 9 = ` ^ ] } ^ Q / } ` ^ < q 9 O.3.3.O.9 9 9 9 9 9 9 9 O.3.3.O.9 9 9 9 9 9 9 9 ",
"9 9 9 9 9 9 9 9 O.3.3.O.9 9 9 9 9 9 9 9 O.3.3.O.9 9 u R ;./ ` [ ` G ! { ` x 9 9 O.3.3.O.9 9 9 9 9 9 9 9 O.3.3.O.9 9 9 9 9 9 9 9 ",
"9 9 9 9 9 9 9 9 O.3.3.@.9 9 9 9 9 9 9 9 O.3.3.O.9 9 = F W } ! / -.W ] / U 1 q 9 O.3.3.O.9 9 9 9 9 9 9 9 @.3.3.O.9 9 9 9 9 9 9 9 ",
"9 9 9 9 9 9 9 9 O.3.2.,.@.O.O.M 9 9 9 9 O.3.3.O.9 9 g E &.G =.{ / &.] ;.' z 9 9 O.3.3.O.9 9 9 9 M O.O.@.,.2.3.O.9 9 9 9 9 9 9 9 ",
"9 9 9 9 9 9 9 9 O.3.2.2.3.3.<.O.9 9 9 9 O.3.3.O.9 9 & ) W ^ Q ` G Q [ ^ U : 9 9 O.3.3.O.9 9 9 9 O.<.3.3.2.2.3.O.9 9 9 9 9 9 9 9 ",
"9 9 9 9 9 9 9 9 O.<.3.3.3.3.<.O.9 9 9 9 O.3.3.O.9 9 * P ] ^ ^ ^ | ` ] [ ` : 9 9 O.3.3.O.9 9 9 9 O.<.3.3.3.3.<.O.9 9 9 9 9 9 9 9 ",
"9 9 9 9 9 9 9 9 M O.O.O.O.O.O.M 9 9 9 9 O.3.3.O.9 9 d R | ! ! ..! ^ [ { U x q 9 O.3.3.O.9 9 9 9 M O.O.O.O.O.O.M 9 9 9 9 9 9 9 9 ",
"9 9 9 9 9 9 9 9 9 9 9 9 9 9 9 9 9 9 9 9 O.3.3.O.9 9 * _ W } ;.Q ^ ! ;.^ U 2 e 9 O.3.3.O.9 9 9 9 9 9 9 9 9 9 9 9 9 9 9 9 9 9 9 9 ",
"9 9 9 9 9 9 9 9 9 9 9 9 9 9 9 9 9 9 9 9 O.3.3.O.9 9 y R ,.^ W ^ ! -.W  .{ x 9 9 O.3.3.O.9 9 9 9 9 9 9 9 9 9 9 9 9 9 9 9 9 9 9 9 ",
"9 9 9 9 9 9 9 9 9 9 9 9 9 9 9 9 9 9 9 9 O.3.3.O.9 9 s I W { ! W ;.W ;.Q ' 1 0 9 O.3.3.O.9 9 9 9 9 9 9 9 9 9 9 9 9 9 9 9 9 9 9 9 ",
"9 9 9 9 9 9 9 9 9 9 9 9 9 9 9 9 9 9 9 9 O.3.3.O.9 9 s T -.] ] [ W | U G U : q 9 O.3.3.O.9 9 9 9 9 9 9 9 9 9 9 9 9 9 9 9 9 9 9 9 ",
"9 9 9 9 9 9 9 9 9 9 9 9 9 9 9 9 9 9 9 9 O.3.3.O.9 9 w L [ { [ ` } ! W ! ' H q 9 O.3.3.O.9 9 9 9 9 9 9 9 9 9 9 9 9 9 9 9 9 9 9 9 ",
"9 9 9 9 9 9 9 9 9 9 9 9 9 9 9 9 9 9 9 9 O.3.3.O.9 9 p _ ^ [ ] Q ;.Q ` ^ W 2 0 9 O.3.3.O.9 9 9 9 9 9 9 9 9 9 9 9 9 9 9 9 9 9 9 9 ",
"9 9 9 9 9 9 9 9 9 9 9 9 9 9 9 9 9 9 9 9 O.3.3.O.9 9 r T %.[ ^ ` / ^ W | G x 9 9 O.3.3.O.9 9 9 9 9 9 9 9 9 9 9 9 9 9 9 9 9 9 9 9 ",
"9 9 9 9 9 9 9 9 9 9 9 9 9 9 9 9 9 9 9 9 @.3.3.O.9 9 s Z W } :.Q [ { &.{ ^ J e 9 O.3.3.@.9 9 9 9 9 9 9 9 9 9 9 9 9 9 9 9 9 9 9 9 ",
"@.O.O.O.O.O.O.O.O.O.O.O.O.O.O.O.O.O.O.@.,.2.3.O.9 9 e T =.^ ^ ..^ Q ] ^ ] Y 0 9 O.3.2.,.@.O.O.O.O.O.O.O.O.O.O.O.O.O.O.O.O.O.O.@.",
"3.3.3.3.3.3.3.3.3.3.3.3.3.3.3.3.3.3.3.3.2.2.3.O.9 9 a L ` ` ' ` G ` U ^ { J 0 9 O.3.2.2.3.3.3.3.3.3.3.3.3.3.3.3.3.3.3.3.3.3.3.3.",
"2.2.2.2.3.3.3.3.2.2.2.2.2.2.2.2.2.2.2.2.2.2.3.O.9 9 % K H 2 J < J H J J Y 1 w 9 O.3.2.2.2.2.2.2.2.2.2.2.2.2.2.2.3.3.3.3.2.2.2.2.",
"2.2.2.,.@.O.O.@.,.2.2.2.2.2.2.2.2.2.2.2.2.2.3.@.9 9 e d 0 0 q q e 9 0 9 e f e 9 @.3.2.2.2.2.2.2.2.2.2.2.2.2.2.,.@.O.O.@.,.2.2.2.",
"2.2.3.@.9 9 9 9 X o o o . . . . . . . . . . . . X X X X X X X X X X X X X X X X . . . . . . . . . . . . . . . X 9 9 9 9 @.3.2.2.",
"2.2.3.O.9 9 9 9 X o o . . . . . . . . . . . . . . . . . . . . . . . . . . . . . . . . . . . . . . . . . . . . X 9 9 9 9 O.3.2.2.",
"3.3.<.O.9 9 9 9 X o o o o . . . . . . . . . . . . . . . . . . . . . . . . . . . . . . . . . . . . . . . . . . X q 9 9 9 O.<.3.3.",
"@.O.O.V 9 9 9 9 X o o o o o . . . . . . . . . . . . . . . . . . . . . . . . . . . . . . o . . . . . . . . . . X 9 9 9 9 V O.O.@.",
"9 9 9 9 X X X X . o o o . . . . . . . . . . . . . . o . . . . . . . . . . . . . . o o . . . . . . . . . . . . . X X X X 9 9 9 9 ",
"9 9 9 8 X . . . . . o o . . . . . . . . . . . . . . . . . . . . . . . . . . . . o . . . . . . . . . . . . . . . . . . X 9 9 9 9 ",
"X X X X . . . . . . . . . . . . . . . . . . . . . . . . . . . . . . . . . . . . . . . . . . . . . . . . . . . . . . . . X X X X ",
". . . . . . . . . . . . . . . . . . . . . . . . . . . . . . . . . . . . . . . . . . . . . . . . . . . . . . . . . . . . . . . . ",
". . . . . . . . . . . . . . . . . . . . . . . . . . . . . . . . . . . . . . . . . . . . . . . . . . . . . . . . . . . . . . . . ",
". . . . . . . . . . . . . . . . . . . . . . . . . . . . . . . . . . . . . . . . . . . . . . . . . . . . . . . . . . . . . . . . ",
". . . . . . . . . . . . . . . . . . . . . . . . . . . . . . . . . . . . . . . . . . . . . . . . . . . . . . . . . . . . . . . . ",
". . . . . . . . . . . . . . . . . . . . . . . . . . . . . . . . . . . . . . . . . . . . . . . . . . . . . . . . . . . . . . . . ",
". . . . . . . . . . . . . . . . . . . . . . . . . . . . . . . . . . . . . . . . . . . . . . . . . . . . . . . . . . . . . . . . ",
". . . . . . . . . . . . . . . . . . . . . . . . . . . . . . . . . . . . . . . . . . . . . . . . . . . . . . . . . . . . . . . . ",
". . . . . . . . . . . . . . . . . . . . . . . . . . . . . . . . . . . . . . . . . . . . . . . . . . . . . . . . . . . . . . . . ",
". . . . . . . . . . . . . . . . . . . . . . . . . . . . . . . . . . . . . . . . . . . . . . . . . . . . . . . . . . . . . . . . "
};
