/* XPM */
static char *_3284d32b1564f3193f115e1e376f0d4fUuW9dVwabzc64Le[] = {
/* columns rows colors chars-per-pixel */
"100 100 14 1 ",
"  c #E91F1F",
". c #EA201F",
"X c #EA2020",
"o c #EA2520",
"O c #EF5D2B",
"+ c #F0612C",
"@ c #F0662D",
"# c #F16E2E",
"$ c #F27C31",
"% c #F38132",
"& c #F48933",
"* c #F38834",
"= c #F39135",
"- c #F49135",
/* pixels */
"--------------=------------------------------------------------------------------------------&      ",
"-------------------------------------------------------------------------------=-------------# X    ",
"---------------------------------------------------------------------------------------------+      ",
"----------=----------------------------------------------------------------------------------O      ",
"----------=------=--------------------=-------==-------=-------------------------------------@      ",
"---------------=---------------=---------------------------==--------------------------------#      ",
"-------==-------------------==----------------------------------=-=--------------------------$      ",
"---------------------------------------------------------------------------------------------%      ",
"-------------------------------------------------------------------------------------------=-*      ",
"-------------------=--------------------------------------------------------------------------      ",
"--------==------------------------------------------------------------------------------------      ",
"------------------------------------------------------------------------------=---------------      ",
"------=---------------------------------------------------------------------------------------      ",
"------------=-------------------------=-=-----===---------------------------------------------      ",
"-=-------------------------------------------------------=------------------------------------      ",
"=--=---------------------------=-=------===-=-----=-----=-------------------------------------      ",
"=------=--=---------=------=--------=----=-----==-==------------------------------------------      ",
"--=---=--------=---------------------------=-----------=--------------------------------------      ",
"----------=----------=------------------=-----------------------------------------------------      ",
"-----------------=----------------------------------------------------------------------------      ",
"----------------------------------------------------------------------------------------------X     ",
"--------------------------------=-=---------=---------=---------------------------------------      ",
"=--------------------=--------=---------------------------------------------------------------      ",
"----------------------------=--------------------==-------------------------------------------      ",
"---------------------------=----------=---------=---------------------------------------------      ",
"----------------------------------------------=-----------------------------------------------X     ",
"----------------------------------------------------------------------------------------------      ",
"----------------------------------------------------------------------------------------------      ",
"=--------------------=-------------------=----------------------------------------------------X     ",
"----------------------------------------=-----------------------------------------------------X     ",
"---------=------------------------------------------------------------------------------------      ",
"--------------------------------------=-------------------------------------------------------      ",
"-------------------------------------=--------------------------------------------------------      ",
"--------------------------=--------=----------------------------------------------------------      ",
"----=------------------------------=----------------------------------------------------------.     ",
"---------------------------------==-----------------------------------------------------------      ",
"----------------------=-----------------------------------------------------------------------      ",
"----------------------------------------------------------------------------------------------      ",
"=---------------------------------------------------------------------------------------------      ",
"--------------------=-------------------------------------------------------------------------      ",
"----------------------------------------------------------------------------------------------.X    ",
"----------------------------------------------------------------------------------------------X     ",
"----------------------------------------------------------------------------------------------      ",
"---------------------------=------------------------------------------------------------------.     ",
"----------------------------------------------------------------------------------------------.     ",
"-----=----------------------------------------------------------------------------------------.     ",
"-------------------------=--------------------------------------------------------------------.     ",
"----------------------------------------------------------------------------------------------.     ",
"------------------------=---------------------------------------------------------------------      ",
"----------------------------------------------------------------------------------------------.     ",
"----------------------------------------------------------------------------------------------X     ",
"----------------------------------------------------------------------------------------------      ",
"----------------------------------------------------------------------------------------------X     ",
"----------------------------------------------------------------------------------------------.     ",
"----------------------------------------------------------------------------------------------.     ",
"----------------------------------------------------------------------------------------------.     ",
"----------------------------------------------------------------------------------------------      ",
"----------------------------------------------------------------------------------------------X     ",
"----------------------------------------------------------------------------------------------X     ",
"--------=-------------------------------------------------------------------------------------.     ",
"----------------------------------------------------------------------------------------------.     ",
"----------------------------------------------------------------------------------------------X     ",
"----------------------------------------------------------------------------------------------.     ",
"----------------------------------------------------------------------------------------------X     ",
"----------------------------------------------------------------------------------------------.     ",
"----------------------------------------------------------------------------------------------.     ",
"----------------------------------------------------------------------------------------------.     ",
"----------------------------------------------------------------------------------------------.     ",
"------=---------------------------------------------------------------------------------------.     ",
"----------------------------------------------------------------------------------------------.     ",
"------=---------------------------------------------------------------------------------------      ",
"-----=----------------------------------------------------------------------------------------X     ",
"----------------------------------------------------------------------------------------------X     ",
"----------------------------------------------------------------------------------------------.     ",
"---------------=------------------------------------------------------------------------------.     ",
"----------------------------------------------------------------------------------------------.     ",
"----------------------------------------------------------------------------------------------X     ",
"----------------------------------------------------------------------------------------------.     ",
"----------------------------------------------------------------------------------------------.    X",
"-----=----------------------------------------------------------------------------------------.     ",
"----------------------------------------------------------------------------------------------.     ",
"----------------------------------------------------------------------------------------------X     ",
"----------------------------------------------------------------------------------------------.     ",
"----------------------------------------------------------------------------------------------X     ",
"----------------------------------------------------------------------------------------------X     ",
"-----=---------=------------------------------------------------------------------------------.     ",
"----------------------------------------------------------------------------------------------.     ",
"----------------------------------------------------------------------------------------------  X   ",
"----------------------------------------------------------------------------------------------.     ",
"----------------------------------------------------------------------------------------------XX    ",
"-----=----------------------------------------------------------------------------------------.     ",
"----------------------------------------------------------------------------------------------.   X ",
"----------------------------------------------------------------------------------------------.     ",
"----------------------------------------------------------------------------------------------      ",
"----------------------------------------------------------------------------------------------.     ",
"----------------------------------------------------------------------------------------------X     ",
"----------------------------------------------------------------------------------------------X     ",
"-------=--------------------------------------------------------------------------------------.     ",
"----------------------------------------------------------------------------------------------X     ",
"----------------------------------------------------------------------------------------------o     "
};
